LG_Sit_Stand_Walk01																		
version=1																		
nRows=88																		
nColumns=19																		
inDegrees=yes																		
endheader																		
time	ground_force2_vx	ground_force2_vy	ground_force2_vz	ground_force2_px	ground_force2_py	ground_force2_pz	ground_torque2_x	ground_torque2_y	ground_torque2_z	ground_force1_vx	ground_force1_vy	ground_force1_vz	ground_force1_px	ground_force1_py	ground_force1_pz	ground_torque1_x	ground_torque1_y	ground_torque1_z
3.265	-10.445147	425.916962	-48.252537	0.182271	0	-0.412654	4.00E-06	2.026235	3.00E-06	0	0	0	-0.13	0	0.305	0	0	0
3.266	-10.445147	425.928955	-48.409279	0.182102	0	-0.413081	1.50E-05	2.026235	3.00E-06	0	0	0	-0.13	0	0.305	0	0	0
3.267	-10.445147	428.842682	-49.192623	0.182102	0	-0.413081	1.50E-05	2.116147	3.00E-06	0	0	0	-0.13	0	0.305	0	0	0
3.268	-10.677258	431.074097	-49.427734	0.182102	0	-0.413081	1.50E-05	2.013991	2.00E-06	0	0	0	-0.13	0	0.305	0	0	0
3.269	-10.677258	431.257324	-49.819267	0.181875	0	-0.413613	7.00E-06	2.013991	3.00E-06	0	0	0	-0.13	0	0.305	0	0	0
3.27	-10.677258	431.935028	-49.976288	0.181875	0	-0.413778	7.00E-06	2.013991	1.00E-06	0	0	0	-0.13	0	0.305	0	0	0
3.271	-10.207987	434.345001	-50.054459	0.182061	0	-0.413613	7.00E-06	1.886175	1.00E-06	0	0	0	-0.13	0	0.305	0	0	0
3.272	-10.365854	434.504303	-50.994545	0.182061	0	-0.413322	5.00E-06	1.957969	1.00E-06	0	0	0	-0.13	0	0.305	0	0	0
3.273	-10.365854	436.754639	-50.994705	0.181956	0	-0.413322	5.00E-06	1.957969	1.00E-06	0	0	0	-0.13	0	0.305	0	0	0
3.274	-10.603737	437.088989	-50.994705	0.181947	0	-0.413271	8.00E-06	1.995313	1.00E-06	0	0	0	-0.13	0	0.305	0	0	0
3.275	-10.603737	438.2948	-51.386238	0.181753	0	-0.412778	9.00E-06	1.995313	3.00E-06	0	0	0	-0.13	0	0.305	0	0	0
3.276	-10.449478	439.328125	-51.38604	0.181753	0	-0.412778	8.00E-06	1.990923	3.00E-06	0	0	0	-0.13	0	0.305	0	0	0
3.277	-10.296661	439.328125	-51.386238	0.18171	0	-0.413272	1.60E-05	1.990923	6.00E-06	0	0	0	-0.13	0	0.305	0	0	0
3.278	-10.375235	440.530457	-51.54258	0.181825	0	-0.413272	7.00E-06	2.023113	6.00E-06	0	0	0	-0.13	0	0.305	0	0	0
3.279	-10.375235	441.048889	-52.0126	0.181903	0	-0.412927	1.00E-05	2.023113	5.00E-06	0	0	0	-0.13	0	0.305	0	0	0
3.28	-10.608788	442.093384	-52.639446	0.18201	0	-0.412308	7.00E-06	2.016982	3.00E-06	0	0	0	-0.13	0	0.305	0	0	0
3.281	-10.69169	442.768372	-52.639446	0.182088	0	-0.412697	7.00E-06	2.016982	3.00E-06	0	0	0	-0.13	0	0.305	0	0	0
3.282	-10.608788	443.44458	-52.560917	0.18201	0	-0.412697	7.00E-06	2.016982	3.00E-06	0	0	0	-0.13	0	0.305	0	0	0
3.283	-10.375235	444.148926	-52.482624	0.181751	0	-0.412935	1.00E-06	1.954833	2.00E-06	0	0	0	-0.13	0	0.305	0	0	0
3.284	-10.375235	444.659973	-52.404255	0.181751	0	-0.412949	1.40E-05	1.954833	3.00E-06	0	0	0	-0.13	0	0.305	0	0	0
3.285	-10.376677	447.065338	-52.404255	0.181751	0	-0.412949	2.00E-06	2.042817	2.00E-06	0	0	0	-0.13	0	0.305	0	0	0
3.286	-10.610952	447.917389	-52.795746	0.181716	0	-0.412949	8.00E-06	2.042817	5.00E-06	0	0	0	-0.13	0	0.305	0	0	0
3.287	-11.003815	448.263367	-52.952324	0.181716	0	-0.412931	2.00E-06	2.042817	1.00E-06	0	0	0	-0.13	0	0.305	0	0	0
3.288	-11.003815	449.641968	-53.10915	0.181795	0	-0.412812	8.00E-06	1.998082	2.00E-06	0	0	0	-0.13	0	0.305	0	0	0
3.289	-11.240974	450.16153	-53.265488	0.181795	0	-0.412701	1.30E-05	2.049722	2.00E-06	0	0	0	-0.13	0	0.305	0	0	0
3.29	-11.243139	451.367676	-53.657261	0.181795	0	-0.412227	1.30E-05	2.071623	5.00E-06	0	0	0	-0.13	0	0.305	0	0	0
3.291	-11.633116	451.550873	-53.265488	0.181839	0	-0.411901	1.30E-05	2.071623	5.00E-06	0	0	0	-0.13	0	0.305	0	0	0
3.292	-11.633116	452.246338	-51.698112	0.182233	0	-0.41192	1.40E-05	2.149194	1.00E-06	0	0	0	-0.13	0	0.305	0	0	0
3.293	-11.944521	452.246338	-51.698112	0.182393	0	-0.41192	1.60E-05	2.20111	1.00E-06	0	0	0	-0.13	0	0.305	0	0	0
3.294	-13.836035	456.711121	-54.674313	0.182393	0	-0.411999	1.40E-05	2.20111	8.00E-06	0	0	0	-0.13	0	0.305	0	0	0
3.295	-13.836035	459.275726	-54.674313	0.182291	0	-0.411999	8.00E-06	2.163714	8.00E-06	0	0	0	-0.13	0	0.305	0	0	0
3.296	-13.453274	459.275726	-53.498234	0.181545	0	-0.412021	5.00E-06	1.99494	7.00E-06	0	0	0	-0.13	0	0.305	0	0	0
3.297	-13.453274	458.253601	-53.498234	0.1818	0	-0.412021	8.00E-06	1.99494	2.00E-06	0	0	0	-0.13	0	0.305	0	0	0
3.298	-15.018229	457.403839	-54.673111	0.1818	0	-0.412434	1.10E-05	2.11724	2.00E-06	0	0	0	-0.13	0	0.305	0	0	0
3.299	-15.018229	457.403839	-55.064796	0.18181	0	-0.412992	1.30E-05	2.11724	3.00E-06	0	0	0	-0.13	0	0.305	0	0	0
3.3	-14.940378	460.66626	-55.22142	0.182272	0	-0.412434	1.70E-05	2.07559	6.00E-06	0	0	0	-0.13	0	0.305	0	0	0
3.301	-14.940378	460.829407	-55.534622	0.182256	0	-0.412402	1.70E-05	2.008622	6.00E-06	0	0	0	-0.13	0	0.305	0	0	0
3.302	-15.096804	460.66626	-55.534622	0.182256	0	-0.412402	6.00E-06	2.008622	6.00E-06	0	0	0	-0.13	0	0.305	0	0	0
3.303	-15.566074	460.319855	-55.143051	0.181596	0	-0.412871	6.00E-06	2.1102	2.00E-06	0	0	0	-0.13	0	0.305	0	0	0
3.304	-15.566074	460.319855	-54.986347	0.181596	0	-0.412871	6.00E-06	2.122969	2.00E-06	0	0	0	-0.13	0	0.305	0	0	0
3.305	-15.411093	463.056152	-54.829685	0.181596	0	-0.412871	1.60E-05	2.122969	3.00E-06	0	0	0	-0.13	0	0.305	0	0	0
3.306	-15.018229	463.056152	-54.751396	0.181312	0	-0.412376	1.70E-05	2.088748	5.00E-06	0	0	0	-0.13	0	0.305	0	0	0
3.307	-15.018229	463.056152	-54.751396	0.181312	0	-0.412376	1.70E-05	2.088748	5.00E-06	0	0	0	-0.13	0	0.305	0	0	0
3.308	-15.483894	462.893005	-55.300117	0.181463	0	-0.412376	8.00E-06	2.086401	6.00E-06	0	0	0	-0.13	0	0.305	0	0	0
3.309	-15.867374	462.893005	-55.692051	0.181631	0	-0.412533	2.00E-06	2.086401	6.00E-06	0	0	0	-0.13	0	0.305	0	0	0
3.31	-15.867374	462.893005	-55.692051	0.181715	0	-0.412533	8.00E-06	2.069179	1.00E-06	0	0	0	-0.13	0	0.305	0	0	0
3.311	-15.867374	464.110748	-54.282822	0.181715	0	-0.41217	5.00E-06	2.069179	1.00E-06	0	0	0	-0.13	0	0.305	0	0	0
3.312	-15.699408	465.655151	-54.204048	0.181832	0	-0.41217	8.00E-06	2.06783	2.00E-06	0	0	0	-0.13	0	0.305	0	0	0
3.313	-16.163624	464.110748	-53.499794	0.181806	0	-0.412216	8.00E-06	2.06783	4.00E-06	0	0	0	-0.13	0	0.305	0	0	0
3.314	-15.699408	465.655151	-53.499794	0.181832	0	-0.413207	9.00E-06	2.007817	8.00E-06	0	0	0	-0.13	0	0.305	0	0	0
3.315	-15.609287	466.340942	-54.44125	0.181806	0	-0.413207	1.10E-05	1.998831	8.00E-06	0	0	0	-0.13	0	0.305	0	0	0
3.316	-15.444206	467.706818	-54.44125	0.181774	0	-0.413207	1.10E-05	1.950526	8.00E-06	0	0	0	-0.13	0	0.305	0	0	0
3.317	-14.566918	467.706818	-52.013165	0.181774	0	-0.413212	1.00E-05	1.808464	9.00E-06	0	0	0	-0.13	0	0.305	0	0	0
3.318	-14.566918	468.551941	-51.779541	0.181784	0	-0.413212	9.00E-06	1.950526	5.00E-06	0	0	0	-0.13	0	0.305	0	0	0
3.319	-14.566918	468.740936	-51.622116	0.181816	0	-0.412815	1.00E-05	1.731337	5.00E-06	0	0	0	-0.13	0	0.305	0	0	0
3.32	-14.952566	470.279541	-51.779541	0.181784	0	-0.412044	1.00E-05	1.923129	3.00E-06	0	0	0	-0.13	0	0.305	0	0	0
3.321	-14.556816	470.626404	-52.719952	0.182071	0	-0.41215	1.00E-05	1.70632	3.00E-06	0	0	0	-0.13	0	0.305	0	0	0
3.322	-14.952566	472.001495	-52.719952	0.182071	0	-0.412022	1.00E-05	1.873455	5.00E-06	0	0	0	-0.13	0	0.305	0	0	0
3.323	-14.878323	472.512939	-52.563168	0.182071	0	-0.412022	1.50E-05	1.873455	5.00E-06	0	0	0	-0.13	0	0.305	0	0	0
3.324	-15.263247	475.269287	-50.760361	0.18243	0	-0.411887	1.50E-05	1.91176	5.00E-06	0	0	0	-0.13	0	0.305	0	0	0
3.325	-15.664769	475.791595	-50.760361	0.182144	0	-0.411887	1.50E-05	2.050161	5.00E-06	0	0	0	-0.13	0	0.305	0	0	0
3.326	-15.664769	476.811401	-51.30851	0.182144	0	-0.41218	7.00E-06	2.050161	5.00E-06	0	0	0	-0.13	0	0.305	0	0	0
3.327	-15.449255	476.811401	-51.30851	0.182067	0	-0.41218	7.00E-06	2.005627	5.00E-06	0	0	0	-0.13	0	0.305	0	0	0
3.328	-15.449255	476.983795	-50.523235	0.18184	0	-0.412236	1.20E-05	1.928343	7.00E-06	0	0	0	-0.13	0	0.305	0	0	0
3.329	-15.76932	478.521667	-50.523235	0.18184	0	-0.411824	1.40E-05	1.928343	5.00E-06	0	0	0	-0.13	0	0.305	0	0	0
3.33	-15.918526	481.287689	-51.07159	0.182101	0	-0.412195	1.20E-05	2.11808	6.00E-06	0	0	0	-0.13	0	0.305	0	0	0
3.331	-15.76932	482.488434	-51.07159	0.182101	0	-0.412195	9.00E-06	2.11808	5.00E-06	0	0	0	-0.13	0	0.305	0	0	0
3.332	-15.697964	482.641968	-50.600517	0.18185	0	-0.412195	9.00E-06	2.016988	4.00E-06	0	0	0	-0.13	0	0.305	0	0	0
3.333	-15.307987	483.521027	-50.286877	0.18185	0	-0.412188	1.00E-05	2.016988	4.00E-06	0	0	0	-0.13	0	0.305	0	0	0
3.334	-15.307987	483.521027	-49.346024	0.181683	0	-0.412188	1.00E-05	2.062	5.00E-06	0	0	0	-0.13	0	0.305	0	0	0
3.335	-15.94306	483.521027	-49.345741	0.181943	0	-0.412188	9.00E-06	2.087785	5.00E-06	0	0	0	-0.13	0	0.305	0	0	0
3.336	-15.948835	484.026306	-49.345741	0.181875	0	-0.4124	7.00E-06	2.160928	5.00E-06	0	0	0	-0.13	0	0.305	0	0	0
3.337	-16.103813	484.026306	-49.188923	0.181875	0	-0.41218	7.00E-06	2.160928	3.00E-06	0	0	0	-0.13	0	0.305	0	0	0
3.338	-16.105978	484.026306	-48.483665	0.181875	0	-0.41218	8.00E-06	2.124083	3.00E-06	0	0	0	-0.13	0	0.305	0	0	0
3.339	-16.33881	483.861969	-48.091614	0.181951	0	-0.411872	1.00E-05	2.124083	3.00E-06	0	0	0	-0.13	0	0.305	0	0	0
3.34	-17.278072	483.339355	-47.778168	0.181951	0	-0.411872	8.00E-06	2.133635	3.00E-06	0	0	0	-0.13	0	0.305	0	0	0
3.341	-17.278072	481.62674	-47.308105	0.181914	0	-0.412198	7.00E-06	2.133635	2.00E-06	0	0	0	-0.13	0	0.305	0	0	0
3.342	-16.571642	481.62674	-47.308105	0.181711	0	-0.412707	3.00E-06	2.003922	5.00E-06	0	0	0	-0.13	0	0.305	0	0	0
3.343	-16.338089	481.793335	-46.994747	0.181809	0	-0.412198	2.00E-06	1.941173	8.00E-06	0	0	0	-0.13	0	0.305	0	0	0
3.344	-16.571642	481.793335	-46.603088	0.181809	0	-0.412266	-6.00E-06	1.941173	8.00E-06	0	0	0	-0.13	0	0.305	0	0	0
3.345	-16.335924	481.793335	-46.524918	0.181809	0	-0.412266	-6.00E-06	2.016976	5.00E-06	0	0	0	-0.13	0	0.305	0	0	0
3.346	-16.335924	482.131989	-46.368134	0.181806	0	-0.412266	1.00E-05	2.016976	3.00E-06	0	0	0	-0.13	0	0.305	0	0	0
3.347	-16.333036	482.131989	-46.368256	0.181806	0	-0.412727	1.00E-05	1.912357	5.00E-06	0	0	0	-0.13	0	0.305	0	0	0
3.348	-16.333036	481.268372	-46.368095	0.181709	0	-0.412727	1.80E-05	1.912357	3.00E-06	0	0	0	-0.13	0	0.305	0	0	0
3.349	-16.567312	480.931274	-46.054974	0.181709	0	-0.412757	8.00E-06	1.957737	6.00E-06	0	0	0	-0.13	0	0.305	0	0	0
3.35	-16.802307	481.268372	-45.741451	0.181709	0	-0.412757	8.00E-06	1.985423	6.00E-06	0	0	0	-0.13	0	0.305	0	0	0
3.351	-17.039469	479.724335	-44.409393	0.18177	0	-0.413165	5.00E-06	1.985423	6.00E-06	0	0	0	-0.13	0	0.305	0	0	0
3.352	-16.880882	478.869568	-43.70417	0.18177	0	-0.41245	1.00E-06	1.986395	4.00E-06	0	0	0	-0.13	0	0.305	0	0	0
